<svg width="209" height="128" viewBox="0 0 209 128" fill="none" xmlns="http://www.w3.org/2000/svg">
<path opacity="0.92" d="M116.6 48C129.367 48 139.7 37.2643 139.7 24C139.7 10.7357 129.367 0 116.6 0C103.833 0 93.5 10.7357 93.5 24C93.5 37.2643 103.833 48 116.6 48ZM132.44 54.8571H130.728C126.438 57 121.674 58.2857 116.6 58.2857C111.526 58.2857 106.783 57 102.472 54.8571H100.76C87.6425 54.8571 77 65.9143 77 79.5429V85.7143C77 91.3929 81.4344 96 86.9 96H146.3C151.766 96 156.2 91.3929 156.2 85.7143V79.5429C156.2 65.9143 145.558 54.8571 132.44 54.8571ZM176 48C186.931 48 195.8 38.7857 195.8 27.4286C195.8 16.0714 186.931 6.85714 176 6.85714C165.069 6.85714 156.2 16.0714 156.2 27.4286C156.2 38.7857 165.069 48 176 48ZM185.9 54.8571H185.116C182.249 55.8857 179.217 56.5714 176 56.5714C172.783 56.5714 169.751 55.8857 166.884 54.8571H166.1C161.893 54.8571 158.015 56.1214 154.612 58.1571C159.644 63.7929 162.8 71.2714 162.8 79.5429V87.7714C162.8 88.2429 162.697 88.6929 162.676 89.1429H199.1C204.566 89.1429 209 84.5357 209 78.8571C209 65.5929 198.667 54.8571 185.9 54.8571Z" fill="#F2F0EF"/>
<g clip-path="url(#clip0_2160_7)">
<rect x="75" y="44" width="14" height="63" fill="#D8C8CB"/>
<path fill-rule="evenodd" clip-rule="evenodd" d="M68.2812 116.125C83.0656 116.125 95 110.188 95 101.281V44.875C95 38.9375 83.125 33 68.2812 33C53.4375 33 41.5625 38.9375 41.5625 44.875V65.6562C48.5094 68.5656 54.4469 73.4344 58.6625 79.6094C61.5719 80.1794 64.7781 80.4941 68.2812 80.4941C76.0594 80.4941 82.5313 78.9444 87.1625 76.4209C87.82 76.0596 88.46 75.6673 89.0803 75.2453V83.4391C89.0803 84.8344 87.97 87.0016 84.3184 88.9966C80.7797 90.9262 75.3528 92.3453 68.2872 92.3453C66.8741 92.3453 65.5282 92.2919 64.2497 92.185C64.7247 94.1365 65.0414 96.1354 65.1997 98.1819C66.2011 98.2373 67.2303 98.265 68.2872 98.265C76.0653 98.265 82.5372 96.7153 87.1684 94.1919C87.8259 93.8305 88.4659 93.4382 89.0862 93.0163V101.21C89.0862 102.611 88.2016 104.689 84.3897 106.744C80.6372 108.762 75.0084 110.116 68.2991 110.116C66.9334 110.116 65.6114 110.061 64.3328 109.95C63.8764 111.924 63.2628 113.857 62.4981 115.733C64.3665 115.943 66.2981 116.048 68.2931 116.048L68.2812 116.125ZM84.3125 71.2375C87.9641 69.2425 89.0744 67.0753 89.0744 65.68V57.4862C88.4608 57.9058 87.8216 58.2977 87.1566 58.6619C82.5372 61.1853 76.0534 62.735 68.2753 62.735C60.4972 62.735 54.0253 61.1853 49.3941 58.6619C48.7366 58.3005 48.0966 57.9082 47.4762 57.4862V65.68C47.4762 67.0753 48.5866 69.2425 52.2381 71.2316C55.7769 73.1613 61.2038 74.5803 68.2694 74.5803C75.335 74.5803 80.7381 73.1613 84.3006 71.2316L84.3125 71.2375ZM47.5 47.8438C47.5 46.1337 48.2422 44.4891 49.6256 43.4856C50.3797 42.9394 51.1991 42.3931 51.8463 42.0962C53.4672 41.3481 61.5837 38.9316 68.2931 38.9316C75.0025 38.9316 80.8213 40.2794 84.74 42.0962C85.4763 42.4347 86.2897 42.9631 87.0081 43.4856C88.3797 44.4772 89.0862 46.11 89.0862 47.8022V47.8378C89.0862 49.2331 87.9759 51.4003 84.3244 53.3953C80.7856 55.325 75.3587 56.7441 68.2931 56.7441C61.2275 56.7441 55.8244 55.3191 52.2619 53.3953C48.6103 51.4062 47.5 49.2331 47.5 47.8438Z" fill="#B0465D"/>
<path fill-rule="evenodd" clip-rule="evenodd" d="M53.4375 101.281C53.4375 116.066 41.5031 128 26.7188 128C11.9344 128 0 116.066 0 101.281C0 86.4969 11.9344 74.5625 26.7188 74.5625C41.5031 74.5625 53.4375 86.4969 53.4375 101.281ZM47.5 101.281C47.5 112.741 38.1781 122.062 26.7188 122.062C15.2594 122.062 5.9375 112.741 5.9375 101.281C5.9375 89.8219 15.2594 80.5 26.7188 80.5C38.1781 80.5 47.5 89.8219 47.5 101.281Z" fill="#B0465D"/>
</g>
<defs>
<clipPath id="clip0_2160_7">
<rect width="95" height="95" fill="white" transform="translate(0 33)"/>
</clipPath>
</defs>
</svg>
