<?xml version="1.0" encoding="UTF-8" standalone="no"?>
<!DOCTYPE svg PUBLIC "-//W3C//DTD SVG 1.1//EN" "http://www.w3.org/Graphics/SVG/1.1/DTD/svg11.dtd">
<!-- Created with Vectornator (http://vectornator.io/) -->
<svg height="512.0pt" stroke-miterlimit="10" style="fill-rule:nonzero;clip-rule:evenodd;stroke-linecap:round;stroke-linejoin:round;" version="1.1" viewBox="0 0 512 512" width="512.0pt" xml:space="preserve" xmlns="http://www.w3.org/2000/svg" xmlns:xlink="http://www.w3.org/1999/xlink">
<defs/>
<path d="M0 0L512 0L512 512L0 512L0 0Z" fill="none" fill-rule="nonzero" opacity="1" stroke="none"/>
<g id="Слой-1">
<path d="M97.3772 28.5313C59.3546 28.5313 28.5313 59.3547 28.5313 97.3772L28.5313 414.623C28.5313 452.645 59.3546 483.469 97.3772 483.469L414.623 483.469C452.645 483.469 483.469 452.645 483.469 414.623L483.469 97.3772C483.469 59.3546 452.645 28.5313 414.623 28.5313L97.3772 28.5313ZM85.1562 71.6562L207.344 71.6562L207.344 79.5625C196.459 79.5625 187.491 84.9159 180.469 95.625C173.446 106.334 169.938 119.755 169.938 135.906L169.938 376.594C169.938 383.967 171.888 390.911 175.75 397.406C179.612 403.902 185.04 409.541 192.062 414.281C199.085 419.021 207.332 422.785 216.812 425.594C226.293 428.403 236.819 429.813 248.406 429.812C264.207 429.812 358.202 427.353 369.438 422.438C380.673 417.522 389.97 411.373 397.344 404C404.717 396.626 410.176 388.814 413.688 380.562C417.199 372.311 418.937 365.008 418.938 358.688L426.844 358.688L426.844 437.188L423.688 440.344L85.1562 440.344L85.1562 432.438C96.0409 432.438 104.978 427.084 112 416.375C119.022 405.666 122.531 392.245 122.531 376.094L122.531 135.906C122.531 119.755 119.022 106.334 112 95.625C104.978 84.9159 96.0409 79.5625 85.1562 79.5625L85.1562 71.6562ZM320.781 71.6562C337.489 71.6562 352.343 73.6123 365.375 77.5312C378.407 81.4502 386.098 86.5138 388.438 92.7188L388.438 153.969L380.938 153.969C380.938 152.009 380.274 147.261 378.938 139.75C377.601 132.239 374.833 124.328 370.656 116C366.479 107.672 360.28 100.164 352.094 93.4688C343.907 86.7739 332.815 83.4062 318.781 83.4062C309.091 83.4062 299.989 85.3068 291.469 89.0625C282.948 92.8182 275.588 97.8817 269.406 104.25C263.225 110.618 258.301 118.214 254.625 127.031C250.949 135.849 249.094 145.456 249.094 155.906C249.094 163.744 250.369 170.795 252.875 177C255.381 183.205 259.476 189.16 265.156 194.875C270.837 200.59 278.414 206.229 287.938 211.781C297.461 217.333 309.413 223.201 323.781 229.406C334.14 233.978 344.433 239.042 354.625 244.594C364.816 250.146 373.918 256.763 381.938 264.438C389.957 272.112 396.457 281.174 401.469 291.625C406.481 302.076 409 314.301 409 328.344C409 343.366 405.983 357.177 399.969 369.75C393.954 382.323 386.199 388.966 370.656 398.906C355.114 408.847 320.781 418.5 320.781 418.5C320.781 418.5 334.912 404.458 341.094 398.906C347.275 393.354 352.199 386.65 355.875 378.812C359.551 370.975 361.375 362.63 361.375 353.812C361.375 344.342 359.385 335.713 355.375 327.875C351.365 320.037 346.078 312.844 339.562 306.312C333.047 299.781 325.552 293.826 317.031 288.438C308.511 283.049 299.741 278.072 290.719 273.5C280.36 267.948 269.901 262.222 259.375 256.344C248.849 250.465 239.499 243.619 231.312 235.781C223.126 227.943 216.429 218.794 211.25 208.344C206.071 197.893 203.5 185.321 203.5 170.625C203.5 155.929 206.351 142.434 212.031 130.188C217.712 117.941 225.621 107.498 235.812 98.8438C246.004 90.1894 258.371 83.5166 272.906 78.7812C287.442 74.0459 303.406 71.6562 320.781 71.6562Z" fill="#ffffff" fill-rule="nonzero" opacity="1" stroke="none"/>
</g>
</svg>
