<svg xmlns="http://www.w3.org/2000/svg" version="1.1" xmlns:xlink="http://www.w3.org/1999/xlink" width="1000" height="1000"><g clip-path="url(#SvgjsClipPath1139)"><rect width="1000" height="1000" fill="#000000"></rect><g transform="matrix(1.4641288433382138,0,0,1.4641288433382138,0,0)"><svg xmlns="http://www.w3.org/2000/svg" version="1.1" xmlns:xlink="http://www.w3.org/1999/xlink" width="683" height="683"><svg width="683" height="683" viewBox="0 0 683 683" fill="none" xmlns="http://www.w3.org/2000/svg">
<g clip-path="url(#clip0_2199_7)">
<path d="M0 0H682.667V682.667H0V0Z" fill="black"></path>
<path d="M129.836 38.0417C79.1395 38.0417 38.0417 79.1396 38.0417 129.836V552.831C38.0417 603.527 79.1395 644.625 129.836 644.625H552.831C603.527 644.625 644.625 603.527 644.625 552.831V129.836C644.625 79.1395 603.527 38.0417 552.831 38.0417H129.836ZM113.542 95.5416H276.459V106.083C261.945 106.083 249.988 113.221 240.625 127.5C231.261 141.779 226.584 159.673 226.584 181.208V502.125C226.584 511.956 229.184 521.215 234.333 529.875C239.483 538.536 246.72 546.055 256.083 552.375C265.447 558.695 276.443 563.713 289.083 567.459C301.724 571.204 315.759 573.084 331.208 573.083C352.276 573.083 477.603 569.804 492.584 563.251C507.564 556.696 519.96 548.497 529.792 538.667C539.623 528.835 546.901 518.419 551.584 507.416C556.265 496.415 558.583 486.677 558.584 478.251H569.125V582.917L564.917 587.125H113.542V576.584C128.055 576.584 139.971 569.445 149.333 555.167C158.696 540.888 163.375 522.993 163.375 501.459V181.208C163.375 159.673 158.696 141.779 149.333 127.5C139.971 113.221 128.055 106.083 113.542 106.083V95.5416ZM427.708 95.5416C449.985 95.5416 469.791 98.1497 487.167 103.375C504.543 108.6 514.797 115.352 517.917 123.625V205.292H507.917C507.917 202.679 507.032 196.348 505.251 186.333C503.468 176.319 499.777 165.771 494.208 154.667C488.639 143.563 480.373 133.552 469.459 124.625C458.543 115.699 443.753 111.208 425.041 111.208C412.121 111.208 399.985 113.742 388.625 118.75C377.264 123.758 367.451 130.509 359.208 139C350.967 147.491 344.401 157.619 339.5 169.375C334.599 181.132 332.125 193.941 332.125 207.875C332.125 218.325 333.825 227.727 337.167 236C340.508 244.273 345.968 252.213 353.541 259.833C361.116 267.453 371.219 274.972 383.917 282.375C396.615 289.777 412.551 297.601 431.708 305.875C445.52 311.971 459.244 318.723 472.833 326.125C486.421 333.528 498.557 342.351 509.251 352.584C519.943 362.816 528.609 374.899 535.292 388.833C541.975 402.768 545.333 419.068 545.333 437.792C545.333 457.821 541.311 476.236 533.292 493C525.272 509.764 514.932 518.621 494.208 531.875C473.485 545.129 427.708 558 427.708 558C427.708 558 446.549 539.277 454.792 531.875C463.033 524.472 469.599 515.533 474.5 505.083C479.401 494.633 481.833 483.507 481.833 471.749C481.833 459.123 479.18 447.617 473.833 437.167C468.487 426.716 461.437 417.125 452.749 408.416C444.063 399.708 434.069 391.768 422.708 384.584C411.348 377.399 399.655 370.763 387.625 364.667C373.813 357.264 359.868 349.629 345.833 341.792C331.799 333.953 319.332 324.825 308.416 314.375C297.501 303.924 288.572 291.725 281.667 277.792C274.761 263.857 271.333 247.095 271.333 227.5C271.333 207.905 275.135 189.912 282.708 173.584C290.283 157.255 300.828 143.331 314.416 131.792C328.005 120.253 344.495 111.355 363.875 105.042C383.256 98.7279 404.541 95.5416 427.708 95.5416Z" fill="white"></path>
</g>
<defs>
<clipPath id="clip0_2199_7">
<rect width="682.667" height="682.667" fill="white"></rect>
</clipPath>
<clipPath id="SvgjsClipPath1139"><rect width="1000" height="1000" x="0" y="0" rx="250" ry="250"></rect></clipPath></defs>
</svg></svg></g></g></svg>