<svg width="175" height="94" viewBox="0 0 175 94" fill="none" xmlns="http://www.w3.org/2000/svg">
<path opacity="0.81" d="M94.0133 61.719L107.018 57.4994C107.247 57.4248 107.497 57.446 107.712 57.5584C107.926 57.6708 108.088 57.8652 108.161 58.0988L108.992 60.741C109.604 62.6874 105.08 65.8927 103.164 66.5144L26.8727 91.2693C24.9567 91.891 19.4414 91.9432 18.8295 89.9968L17.9988 87.3546C17.9253 87.121 17.9462 86.8674 18.0569 86.6494C18.1675 86.4315 18.3589 86.2672 18.5888 86.1926L31.593 81.973C29.7536 82.5698 27.7561 82.3999 26.04 81.5006C24.3239 80.6013 23.0297 79.0463 22.4422 77.1776L9.15082 34.9026C8.5633 33.0339 8.73056 31.0047 9.6158 29.2613C10.501 27.5179 12.0317 26.2031 13.8712 25.6063L76.2914 5.35228C78.1309 4.75542 80.1284 4.92534 81.8445 5.82465C83.5606 6.72396 84.8547 8.279 85.4423 10.1477L98.7336 52.4227C99.3212 54.2914 99.1539 56.3206 98.2687 58.064C97.3834 59.8074 95.8527 61.1221 94.0133 61.719ZM16.6402 34.4136L28.824 73.1657C28.9709 73.6329 29.2944 74.0216 29.7234 74.2464C30.1525 74.4713 30.6518 74.5138 31.1117 74.3645L90.0642 55.2358C90.524 55.0865 90.9067 54.7579 91.128 54.322C91.3493 53.8862 91.3911 53.3788 91.2443 52.9117L79.0605 14.1596C78.9136 13.6924 78.5901 13.3036 78.161 13.0788C77.732 12.854 77.2326 12.8115 76.7728 12.9607L17.8203 32.0895C17.3604 32.2387 16.9778 32.5674 16.7565 33.0033C16.5351 33.4391 16.4933 33.9464 16.6402 34.4136ZM55.3138 72.335C54.8539 72.4842 54.4712 72.8129 54.2499 73.2487C54.0286 73.6846 53.9868 74.1919 54.1337 74.659C54.2806 75.1262 54.6041 75.515 55.0331 75.7398C55.4622 75.9646 55.9615 76.0071 56.4214 75.8579L70.2926 71.357C70.7524 71.2078 71.1351 70.8791 71.3564 70.4433C71.5777 70.0074 71.6195 69.5001 71.4726 69.0329C71.3258 68.5658 71.0022 68.177 70.5732 67.9522C70.1442 67.7273 69.6448 67.6849 69.1849 67.8341L55.3138 72.335Z" fill="white"/>
<path fill-rule="evenodd" clip-rule="evenodd" d="M146.222 14.5553L148.541 14.8718C148.605 14.8805 148.66 14.9207 148.688 14.9788L149.123 15.8865L149.213 16.0727L149.938 17.5856L150.072 17.8649L151.088 19.983L151.266 20.3554C151.66 21.1756 152.095 22.0834 152.572 23.0786L152.796 23.5441C153.596 25.2133 155.181 26.3695 157.012 26.6194L164.278 27.6113C169.203 28.2835 172.667 32.8231 172.015 37.7507L167.781 69.7605C167.13 74.6882 162.609 78.1378 157.684 77.4656L100.917 69.7172C95.9924 69.0449 92.5283 64.5053 93.1801 59.5777L97.4136 27.568C98.0653 22.6403 102.586 19.1906 107.511 19.8629L112.891 20.5973C115.898 21.0077 118.904 19.8741 120.884 17.5821L126.117 11.5266L146.222 14.5553ZM135.423 27.2981C124.093 25.7515 113.748 33.2666 112.318 44.0835C110.887 54.9002 118.912 64.9227 130.243 66.4693C141.573 68.0158 151.918 60.5008 153.348 49.684C154.779 38.8671 146.754 28.8446 135.423 27.2981ZM134.481 34.4201C141.692 35.4043 146.799 41.7824 145.888 48.6658C144.978 55.5491 138.395 60.3314 131.184 59.3472C123.974 58.363 118.867 51.985 119.778 45.1018C120.688 38.2182 127.271 33.436 134.481 34.4201ZM164.793 34.9323C162.733 34.6511 160.852 36.0173 160.592 37.9841C160.332 39.951 161.791 41.773 163.851 42.0542C165.911 42.3355 167.792 40.9693 168.052 39.0024C168.312 37.0356 166.853 35.2135 164.793 34.9323Z" fill="#4A3E41"/>
</svg>
