<svg width="148" height="95" viewBox="0 0 148 95" fill="none" xmlns="http://www.w3.org/2000/svg">
<path opacity="0.92" d="M87.1426 31.5826C95.5286 31.5826 102.316 24.5389 102.316 15.8362C102.316 7.13354 95.5286 0.0898438 87.1426 0.0898438C78.7566 0.0898438 71.9692 7.13354 71.9692 15.8362C71.9692 24.5389 78.7566 31.5826 87.1426 31.5826ZM97.5472 36.0816H96.4227C93.6048 37.4875 90.4753 38.3311 87.1426 38.3311C83.8099 38.3311 80.6939 37.4875 77.8624 36.0816H76.738C68.1217 36.0816 61.1311 43.3362 61.1311 52.2779V56.327C61.1311 60.0527 64.0438 63.0754 67.634 63.0754H106.651C110.241 63.0754 113.154 60.0527 113.154 56.327V52.2779C113.154 43.3362 106.163 36.0816 97.5472 36.0816ZM126.16 31.5826C133.34 31.5826 139.166 25.5371 139.166 18.0857C139.166 10.6343 133.34 4.58881 126.16 4.58881C118.98 4.58881 113.154 10.6343 113.154 18.0857C113.154 25.5371 118.98 31.5826 126.16 31.5826ZM132.663 36.0816H132.148C130.265 36.7564 128.273 37.2063 126.16 37.2063C124.046 37.2063 122.055 36.7564 120.172 36.0816H119.657C116.893 36.0816 114.346 36.9111 112.111 38.2467C115.417 41.9443 117.489 46.851 117.489 52.2779V57.6767C117.489 57.986 117.422 58.2812 117.408 58.5765H141.333C144.923 58.5765 147.836 55.5537 147.836 51.828C147.836 43.1253 141.049 36.0816 132.663 36.0816Z" fill="#F2F0EF"/>
<rect width="63.0358" height="42.8554" rx="3" transform="matrix(0.893895 -0.448276 0.438752 0.898608 2.65576 51.2573)" fill="#CEC5C5"/>
<path d="M66.9982 61.1466C68.6836 59.6215 69.669 57.5301 68.1692 54.4043L53.3609 23.5435C52.1798 21.082 49.805 20.2515 46.4319 23.0869L31.0539 36.0057L11.747 40.7289C7.49269 41.6974 6.70638 44.2114 7.88751 46.6729L22.6958 77.5337C24.1957 80.6595 26.4078 81.1245 28.6083 80.673L50.3455 76.2098L66.9982 61.1466ZM54.416 25.7463L56.7303 24.1744C58.2413 23.1476 61.236 23.6038 62.0222 25.2423L77.5406 57.583C78.7231 60.0474 77.6653 61.5152 74.9231 63.4727L52.3567 79.4593L26.3124 88.1978C23.1361 89.2507 21.3611 89.2238 20.1786 86.7593L4.66018 54.4187C3.87395 52.7802 5.341 50.0527 7.05188 49.4426L8.90224 48.78" fill="#CEC5C5"/>
<path d="M54.416 25.7463L56.7303 24.1744C58.2413 23.1476 61.236 23.6038 62.0222 25.2423L77.5406 57.583C78.7231 60.0474 77.6653 61.5152 74.9231 63.4727L52.3567 79.4593L26.3124 88.1978C23.1361 89.2507 21.3611 89.2238 20.1786 86.7593L4.66018 54.4187C3.87395 52.7802 5.341 50.0527 7.05188 49.4426L8.90224 48.78M66.9982 61.1466C68.6836 59.6215 69.669 57.5301 68.1692 54.4043L53.3609 23.5435C52.1798 21.082 49.805 20.2515 46.4319 23.0869L31.0539 36.0057L11.747 40.7289C7.49269 41.6974 6.70638 44.2114 7.88751 46.6729L22.6958 77.5337C24.1957 80.6595 26.4078 81.1245 28.6083 80.673L50.3455 76.2098L66.9982 61.1466Z" stroke="#B0465D" stroke-width="4" stroke-linecap="round" stroke-linejoin="round"/>
</svg>
