<svg width="155" height="129" viewBox="0 0 155 129" fill="none" xmlns="http://www.w3.org/2000/svg">
<path opacity="0.78" d="M114.872 81.9909C121.769 82.8768 128.739 81.026 134.251 76.8456C139.763 72.6652 143.365 66.4976 144.263 59.6996C145.162 52.9017 143.284 46.0302 139.044 40.5969C134.803 35.1635 128.546 31.6134 121.65 30.7275C114.754 29.8416 107.783 31.6924 102.271 35.8728C96.759 40.0532 93.1576 46.2208 92.2588 53.0188C91.3601 59.8167 93.2377 66.6882 97.4785 72.1215C101.719 77.5549 107.976 81.105 114.872 81.9909ZM122.497 24.3196C126.765 24.8679 130.882 26.2396 134.613 28.3563C138.343 30.4731 141.614 33.2934 144.239 36.6563C146.864 40.0192 148.791 43.8588 149.911 47.9558C151.03 52.0529 151.32 56.3272 150.764 60.5347C149.64 69.0322 145.139 76.7416 138.249 81.9672C131.359 87.1927 122.645 89.5063 114.025 88.3988C96.0511 86.0898 83.4285 69.8055 85.7583 52.1837C86.8817 43.6862 91.3835 35.9768 98.2733 30.7512C105.163 25.5257 113.877 23.2121 122.497 24.3196ZM122.004 40.5482L119.78 57.369L133.276 67.8025L130.317 71.4302L114.587 59.1456L117.129 39.9218L122.004 40.5482Z" fill="#F5F5F5"/>
<rect width="62.0708" height="64.0653" transform="matrix(1.00028 -0.112289 0.117583 0.986199 30.9121 40.9702)" fill="#C0ADAA"/>
<path opacity="0.2" d="M94.7193 32.7943L96.7358 47.4623L29.5848 56.3208L27.5683 41.6528C27.4614 40.8748 27.6804 40.0862 28.1772 39.4605C28.674 38.8349 29.4078 38.4234 30.2174 38.3166L91.2637 30.2634C92.0732 30.1566 92.8921 30.3632 93.5401 30.8379C94.1882 31.3125 94.6123 32.0163 94.7193 32.7943Z" fill="#B0465D"/>
<path d="M90.5085 27.2333L81.4071 28.4793L80.9993 25.4978C80.8912 24.707 80.4678 23.9924 79.8224 23.5111C79.177 23.0299 78.3624 22.8214 77.5578 22.9316C76.7532 23.0417 76.0245 23.4615 75.532 24.0985C75.0395 24.7356 74.8236 25.5377 74.9317 26.3285L75.3395 29.31L45.0015 33.4636L44.5938 30.482C44.4856 29.6913 44.0623 28.9767 43.4169 28.4954C42.7715 28.0141 41.9568 27.8057 41.1522 27.9158C40.3476 28.026 39.6189 28.4458 39.1264 29.0828C38.634 29.7199 38.4181 30.522 38.5262 31.3127L38.934 34.2943L29.8326 35.5404C28.2233 35.7607 26.766 36.6002 25.781 37.8743C24.796 39.1484 24.3642 40.7527 24.5805 42.3342L32.7357 101.965C32.952 103.547 33.7987 104.976 35.0895 105.939C36.3803 106.901 38.0096 107.318 39.6188 107.098L100.295 98.7907C101.904 98.5704 103.361 97.7308 104.346 96.4567C105.331 95.1826 105.763 93.5784 105.547 91.9969L97.3916 32.3657C97.1753 30.7842 96.3286 29.3549 95.0378 28.3924C93.7469 27.4299 92.1177 27.0129 90.5085 27.2333ZM39.7495 40.2574L40.1572 43.239C40.2654 44.0297 40.6887 44.7443 41.3341 45.2256C41.9796 45.7069 42.7942 45.9153 43.5988 45.8052C44.4034 45.695 45.1321 45.2752 45.6246 44.6382C46.1171 44.0012 46.333 43.199 46.2248 42.4083L45.8171 39.4267L76.155 35.2732L76.5628 38.2547C76.6709 39.0455 77.0943 39.7601 77.7397 40.2413C78.3851 40.7226 79.1997 40.9311 80.0043 40.8209C80.8089 40.7108 81.5377 40.291 82.0301 39.6539C82.5226 39.0169 82.7385 38.2148 82.6304 37.424L82.2226 34.4424L91.324 33.1964L92.955 45.1226L32.2791 53.4297L30.6481 41.5035L39.7495 40.2574ZM99.4792 92.8276L38.8033 101.135L33.0946 59.3928L93.7706 51.0857L99.4792 92.8276ZM58.5883 65.0147L61.8504 88.8671C61.9585 89.6579 61.7426 90.46 61.2501 91.0971C60.7576 91.7341 60.0289 92.1539 59.2243 92.2641C58.4197 92.3742 57.6051 92.1657 56.9597 91.6845C56.3143 91.2032 55.8909 90.4886 55.7828 89.6979L53.1802 70.6681L51.6172 71.7249C50.9455 72.1774 50.1198 72.3497 49.3218 72.2041C48.5237 72.0584 47.8187 71.6067 47.3619 70.9483C46.905 70.2899 46.7337 69.4787 46.8857 68.6931C47.0376 67.9076 47.5004 67.2121 48.1721 66.7597L53.8319 62.9474C54.2635 62.6565 54.763 62.4786 55.283 62.4307C55.803 62.3828 56.3262 62.4663 56.8029 62.6735C57.2795 62.8807 57.6938 63.2045 58.0063 63.6143C58.3188 64.0241 58.5191 64.5061 58.5883 65.0147ZM82.5752 73.2917L76.6116 83.8088L82.6792 82.9781C83.4838 82.8679 84.2984 83.0764 84.9438 83.5577C85.5892 84.0389 86.0126 84.7535 86.1207 85.5443C86.2289 86.3351 86.013 87.1372 85.5205 87.7742C85.028 88.4113 84.2993 88.8311 83.4947 88.9412L71.3595 90.6026C70.7961 90.6798 70.2227 90.6012 69.7036 90.3757C69.1846 90.1502 68.7403 89.7867 68.4206 89.326C68.1009 88.8652 67.9184 88.3254 67.8936 87.767C67.8688 87.2086 68.0026 86.6537 68.2801 86.1644L77.2384 70.3699C77.4423 70.0111 77.5696 69.6155 77.6126 69.2073C77.6556 68.7992 77.6134 68.3871 77.4885 67.9963C77.3637 67.6056 77.1589 67.2444 76.8866 66.935C76.6143 66.6257 76.2803 66.3745 75.9052 66.1971C75.53 66.0197 75.1216 65.9197 74.705 65.9033C74.2883 65.8869 73.8723 65.9545 73.4823 66.1017C73.0924 66.249 72.7367 66.473 72.4373 66.7599C72.1378 67.0468 71.9008 67.3905 71.7409 67.77C71.5954 68.1464 71.3749 68.4907 71.0923 68.7825C70.8098 69.0743 70.471 69.3079 70.0958 69.4693C69.7207 69.6307 69.3168 69.7167 68.908 69.7223C68.4993 69.7279 68.0939 69.6529 67.7159 69.5018C67.3378 69.3507 66.9948 69.1265 66.7069 68.8425C66.419 68.5584 66.1922 68.2203 66.0398 67.848C65.8874 67.4757 65.8125 67.0768 65.8196 66.6748C65.8266 66.2729 65.9155 65.876 66.0809 65.5076C66.8499 63.666 68.214 62.1224 69.9617 61.1161C71.7094 60.1098 73.7431 59.697 75.7474 59.9416C77.7518 60.1863 79.615 61.0747 81.0481 62.4693C82.4812 63.8638 83.4043 65.6866 83.6742 67.655C83.9465 69.5986 83.5604 71.5794 82.5752 73.2917Z" fill="#B0465D"/>
</svg>
