<svg width="153" height="111" viewBox="0 0 153 111" fill="none" xmlns="http://www.w3.org/2000/svg">
<path opacity="0.74" d="M84.2026 30.9884C77.1416 33.317 72.8402 40.0959 74.3531 47.465C75.2311 49.5171 84.4896 48.6581 91.9263 45.3743C99.3631 42.0905 104.04 34.3564 103.472 33.0285C102.878 31.6403 95.3078 26.9459 84.2026 30.9884ZM38.3228 51.2472C27.8374 56.7383 25.7077 64.9264 26.5599 66.9182C27.1539 68.3064 36.5707 69.8173 43.3477 66.8248C50.1247 63.8323 57.7188 57.2499 56.8408 55.1977C52.5691 49.0469 44.0961 47.9086 38.3228 51.2472ZM106.905 65.3833C95.4496 70.4414 82.2025 60.1449 71.4073 64.9116C60.612 69.6784 58.3259 86.8338 47.5307 91.6006C33.3769 97.8503 17.7151 89.4094 7.85041 66.3531C1.75601 52.1089 4.07821 46.2039 22.2502 38.1798C40.4222 30.1557 48.4223 35.5214 57.1784 31.655C65.9346 27.7886 68.1301 17.921 85.7023 10.1618C103.275 2.40253 109.993 5.10512 115.803 18.6854C125.668 41.7417 121.058 59.1335 106.905 65.3833Z" fill="#ECECEC"/>
<path d="M119.437 70.024C112.479 69.5019 106.371 73.8931 105.118 80.9169C105.167 83.039 113.525 85.6511 121.144 85.4707C128.762 85.2902 135.53 80.1965 135.498 78.8233C135.465 77.3878 130.513 70.511 119.437 70.024ZM72.4371 71.1374C61.3956 72.1484 56.6867 78.5672 56.734 80.6269C56.767 82.0624 64.437 86.8141 71.3794 86.6496C78.3218 86.4851 87.2272 83.464 87.1785 81.3419C85.605 74.385 78.6266 70.3039 72.4371 71.1374ZM127.205 108.495C115.47 108.773 107.529 94.9106 96.4707 95.1726C85.412 95.4346 77.4403 109.674 66.3816 109.936C51.8823 110.28 41.1928 97.1691 40.6455 73.3269C40.3074 58.5972 44.3877 54.2541 63.0032 53.813C81.6188 53.372 86.7114 60.9949 95.6813 60.7824C104.651 60.5699 110.003 52.6996 128.004 52.2731C146.005 51.8467 150.91 56.6639 151.233 70.707C151.78 94.5492 141.704 108.152 127.205 108.495Z" fill="#4A3E41"/>
</svg>
